<?xml version="1.0" encoding="UTF-8"?>
<svg width="24" height="24"
    viewBox="0 0 24 24"
    fill="currentColor"
    xmlns="http://www.w3.org/2000/svg">
<path d="M20.447 20.452h-3.554v-5.569c0-1.328-.475-2.236-1.986-2.236-1.081 0-1.722.722-2.004 1.418-.103.249-.129.597-.129.946v5.441h-3.554s.05-8.877 0-9.806h3.554v1.391c-.009.015-.021.029-.033.042h.033v-.042c.431-.665 1.199-1.61 2.925-1.61 2.139 0 3.745 1.395 3.745 4.393v5.632zM5.337 8.855c-1.144 0-1.915-.758-1.915-1.706 0-.955.77-1.706 1.915-1.706 1.144 0 1.915.751 1.915 1.706 0 .948-.771 1.706-1.915 1.706zm1.589 11.597H3.748V9.646h3.178v10.806zM22.225 0H1.771C.792 0 0 .774 0 1.729v20.542C0 23.227.792 24 1.771 24h20.451C23.2 24 24 23.227 24 22.271V1.729C24 .774 23.2 0 22.225 0z"/>
</svg>
